<?xml version="1.0" encoding="UTF-8" standalone="no"?>
<!DOCTYPE svg PUBLIC "-//W3C//DTD SVG 1.1//EN" "http://www.w3.org/Graphics/SVG/1.1/DTD/svg11.dtd">
<svg width="100%" height="100%" viewBox="0 0 300 41" version="1.1" xmlns="http://www.w3.org/2000/svg" xmlns:xlink="http://www.w3.org/1999/xlink" xml:space="preserve" xmlns:serif="http://www.serif.com/" style="fill-rule:evenodd;clip-rule:evenodd;stroke-linejoin:round;stroke-miterlimit:2;">
    <g transform="matrix(1,0,0,1,-1.20801,-0.711928)">
        <path d="M58.567,28.139L58.567,20.497C58.567,18.616 57.566,16.908 55.595,16.908C53.654,16.908 52.508,18.616 52.508,20.497L52.508,28.139L48.922,28.139L48.922,13.84L52.244,13.84L52.508,15.578C53.273,14.129 54.949,13.609 56.33,13.609C58.066,13.609 59.8,14.304 60.624,16.271C61.918,14.245 63.595,13.667 65.476,13.667C69.593,13.667 71.622,16.155 71.622,20.44L71.622,28.139L68.034,28.139L68.034,20.44C68.034,18.559 67.24,16.966 65.301,16.966C63.359,16.966 62.153,18.616 62.153,20.497L62.153,28.139L58.567,28.139Z" style="fill-rule:nonzero;"/>
        <path d="M86.765,13.87L90.206,13.87L90.206,28.139L86.824,28.139L86.647,26.056C85.825,27.734 83.561,28.543 81.943,28.573C77.651,28.603 74.474,25.997 74.474,20.989C74.474,16.069 77.798,13.493 82.033,13.522C83.973,13.522 85.824,14.419 86.647,15.838L86.765,13.87ZM78.062,20.989C78.062,23.71 79.973,25.331 82.355,25.331C88,25.331 88,16.677 82.355,16.677C79.973,16.677 78.062,18.269 78.062,20.989Z" style="fill-rule:nonzero;"/>
        <path d="M93.236,34.105L93.236,13.87L96.589,13.87L96.822,15.838C97.94,14.245 99.882,13.551 101.528,13.551C105.996,13.551 108.968,16.822 108.968,21.019C108.968,25.187 106.291,28.487 101.645,28.487C100.118,28.487 97.852,28.023 96.822,26.461L96.822,34.104L93.236,34.104L93.236,34.105ZM105.381,21.019C105.381,18.791 103.851,16.966 101.264,16.966C98.676,16.966 97.146,18.791 97.146,21.019C97.146,23.247 98.823,25.073 101.264,25.073C103.705,25.073 105.381,23.247 105.381,21.019Z" style="fill-rule:nonzero;"/>
        <path d="M115.378,9.528L115.378,13.84L120.319,13.84L120.319,15.026L115.378,15.026L115.378,23.739C115.378,25.679 115.791,27.04 118.055,27.04C118.76,27.04 119.554,26.808 120.289,26.461L120.789,27.617C119.877,28.054 118.965,28.342 118.055,28.342C114.968,28.342 113.967,26.547 113.967,23.74L113.967,15.027L110.879,15.027L110.879,13.84L113.967,13.84L113.967,9.672L115.378,9.528Z" style="fill-rule:nonzero;"/>
        <path d="M125.554,9.18C125.554,10.685 123.23,10.685 123.23,9.18C123.23,7.675 125.554,7.675 125.554,9.18ZM123.643,13.782L123.643,28.14L125.082,28.14L125.082,13.782L123.643,13.782Z" style="fill-rule:nonzero;"/>
        <rect x="129.199" y="7.878" width="1.441" height="20.261"/>
        <path d="M153.488,13.84L153.547,16.389C154.459,14.448 156.518,13.696 158.37,13.696C159.459,13.667 160.515,13.956 161.486,14.536L160.839,15.693C160.076,15.23 159.221,15.027 158.37,15.027C155.663,15.057 153.576,17.198 153.576,19.804L153.576,28.14L152.135,28.14L152.135,13.84L153.488,13.84Z" style="fill-rule:nonzero;"/>
        <path d="M135.54,23.414C135.541,23.415 135.543,23.417 135.543,23.418L147.303,20.354C147.302,20.349 147.302,20.345 147.302,20.341L135.54,23.414Z" style="fill-rule:nonzero;"/>
        <path d="M141.214,27.28C138.654,27.28 136.461,25.701 135.543,23.458L135.535,23.458L135.542,23.457C135.542,23.456 135.541,23.455 135.54,23.454L147.301,20.38C147.301,20.385 147.302,20.389 147.302,20.394L148.555,20.068C148.049,16.446 144.956,13.658 141.214,13.658C137.12,13.658 133.802,16.996 133.802,21.113C133.802,25.23 137.12,28.569 141.214,28.569C144.276,28.569 146.905,26.7 148.035,24.037L146.855,23.532C145.921,25.734 143.747,27.28 141.214,27.28ZM135.083,21.113C135.083,17.708 137.828,14.946 141.214,14.946C143.862,14.946 146.117,16.634 146.976,18.999L135.16,22.085C135.11,21.768 135.083,21.444 135.083,21.113Z" style="fill-rule:nonzero;"/>
    </g>
    <g transform="matrix(1,0,0,1,-1.20801,-0.711928)">
        <path d="M11.965,33.743C14.023,35.769 19.5,41.264 19.497,41.269C19.477,41.305 24.938,35.908 27.113,33.768L19.526,26.3L11.965,33.743Z" style="fill:rgb(58,24,136);fill-rule:nonzero;"/>
        <path d="M19.526,26.3L27.113,33.768C27.124,33.756 27.138,33.741 27.15,33.731L34.73,26.27L27.143,18.802L19.526,26.3Z" style="fill:rgb(3,161,196);fill-rule:nonzero;"/>
        <path d="M34.73,26.27L34.749,26.25C38.942,22.123 38.945,15.435 34.762,11.302L27.144,18.802L34.73,26.27Z" style="fill:rgb(5,208,223);fill-rule:nonzero;"/>
        <path d="M11.908,18.802L4.349,26.243C4.351,26.245 4.352,26.248 4.355,26.25L11.953,33.73C11.957,33.734 11.961,33.738 11.966,33.743L19.526,26.3L11.908,18.802Z" style="fill:rgb(118,31,232);fill-rule:nonzero;"/>
        <path d="M19.526,11.303L27.143,18.802L34.762,11.303C34.755,11.298 34.753,11.295 34.749,11.29L27.15,3.81C27.149,3.808 27.146,3.806 27.144,3.804L19.526,11.303Z" style="fill:rgb(255,170,1);fill-rule:nonzero;"/>
        <path d="M4.317,11.328C0.161,15.46 0.172,22.124 4.349,26.243L11.908,18.802L4.317,11.328Z" style="fill:rgb(241,23,93);fill-rule:nonzero;"/>
        <path d="M19.526,11.303L11.934,3.829L4.355,11.29C4.341,11.303 4.33,11.317 4.316,11.329L11.908,18.802L19.526,11.303Z" style="fill:rgb(251,58,27);fill-rule:nonzero;"/>
        <path d="M27.144,3.804C22.946,-0.321 16.148,-0.319 11.953,3.81L11.934,3.829L19.526,11.303L27.144,3.804Z" style="fill:rgb(251,201,53);fill-rule:nonzero;"/>
    </g>
    <g>
        <g transform="matrix(2.19452,0,0,1,-172.766,0)">
            <path d="M189.138,12.834C189.138,11.822 188.764,11 188.303,11L174.483,11L174.483,30L188.266,30C188.747,30 189.138,29.143 189.138,28.086L189.138,12.834Z" style="fill:rgb(251,201,53);"/>
        </g>
        <g transform="matrix(3.08636,0,0,1,-373.01,0)">
            <path d="M189.138,11L175.092,11C174.756,11 174.483,11.842 174.483,12.879L174.483,28.059C174.483,29.13 174.765,30 175.112,30L189.138,30L189.138,11Z" style="fill:rgb(251,58,27);"/>
        </g>
    </g>
    <g transform="matrix(0.69243,0,0,0.69243,168.024,27.6378)">
        <g transform="matrix(29.202,0,0,29.202,0,0)">
            <path d="M0.586,-0.585C0.533,-0.693 0.42,-0.724 0.311,-0.724C0.182,-0.723 0.04,-0.664 0.04,-0.52C0.04,-0.363 0.172,-0.325 0.315,-0.308C0.408,-0.298 0.477,-0.271 0.477,-0.205C0.477,-0.129 0.399,-0.1 0.316,-0.1C0.231,-0.1 0.15,-0.134 0.119,-0.211L0.009,-0.154C0.061,-0.026 0.171,0.018 0.314,0.018C0.47,0.018 0.608,-0.049 0.608,-0.205C0.608,-0.372 0.472,-0.41 0.326,-0.428C0.242,-0.438 0.17,-0.455 0.17,-0.516C0.17,-0.568 0.217,-0.609 0.315,-0.609C0.391,-0.609 0.457,-0.571 0.481,-0.531L0.586,-0.585Z" style="fill:white;fill-rule:nonzero;"/>
        </g>
        <g transform="matrix(29.202,0,0,29.202,19.3025,0)">
            <path d="M0.315,-0.7L0.04,-0.7L0.04,-0L0.315,-0C0.56,-0 0.668,-0.179 0.665,-0.356C0.662,-0.529 0.555,-0.7 0.315,-0.7ZM0.171,-0.575L0.315,-0.575C0.467,-0.575 0.531,-0.466 0.534,-0.357C0.537,-0.243 0.474,-0.127 0.315,-0.127L0.171,-0.127L0.171,-0.575Z" style="fill:white;fill-rule:nonzero;"/>
        </g>
        <g transform="matrix(29.202,0,0,29.202,39.8315,0)">
            <path d="M0.611,-0.7L0.447,-0.7L0.181,-0.404L0.181,-0.7L0.049,-0.7L0.049,-0L0.181,-0L0.181,-0.31L0.474,-0L0.637,-0L0.637,-0.008L0.3,-0.361L0.611,-0.696L0.611,-0.7Z" style="fill:white;fill-rule:nonzero;"/>
        </g>
        <g transform="matrix(29.202,0,0,29.202,64.8576,0)">
            <path d="M0.636,-0.7L0.293,-0.7L0.293,-0.577L0.504,-0.577L0.504,-0.299C0.504,-0.193 0.448,-0.11 0.328,-0.11C0.209,-0.11 0.151,-0.171 0.151,-0.291L0.021,-0.291C0.021,-0.093 0.149,0.014 0.328,0.014C0.521,0.014 0.636,-0.118 0.636,-0.299L0.636,-0.7Z" style="fill:white;fill-rule:nonzero;"/>
        </g>
        <g transform="matrix(29.202,0,0,29.202,85.6203,0)">
            <path d="M0.586,-0.585C0.533,-0.693 0.42,-0.724 0.311,-0.724C0.182,-0.723 0.04,-0.664 0.04,-0.52C0.04,-0.363 0.172,-0.325 0.315,-0.308C0.408,-0.298 0.477,-0.271 0.477,-0.205C0.477,-0.129 0.399,-0.1 0.316,-0.1C0.231,-0.1 0.15,-0.134 0.119,-0.211L0.009,-0.154C0.061,-0.026 0.171,0.018 0.314,0.018C0.47,0.018 0.608,-0.049 0.608,-0.205C0.608,-0.372 0.472,-0.41 0.326,-0.428C0.242,-0.438 0.17,-0.455 0.17,-0.516C0.17,-0.568 0.217,-0.609 0.315,-0.609C0.391,-0.609 0.457,-0.571 0.481,-0.531L0.586,-0.585Z" style="fill:white;fill-rule:nonzero;"/>
        </g>
    </g>
</svg>
