<svg width="100%" height="100%" viewBox="0 0 38 38" version="1.1" xmlns="http://www.w3.org/2000/svg" xmlns:xlink="http://www.w3.org/1999/xlink" xml:space="preserve" style="fill-rule:evenodd;clip-rule:evenodd;stroke-linejoin:round;stroke-miterlimit:2;">
    <g transform="matrix(1.25333,0,0,1.25333,8.97333,8.97333)">
        <path d="M1.375,5.542C1.139,5.542 0.934,5.455 0.76,5.281C0.587,5.108 0.5,4.903 0.5,4.667L0.5,1.375C0.5,1.139 0.587,0.934 0.76,0.76C0.934,0.587 1.139,0.5 1.375,0.5L4.667,0.5C4.903,0.5 5.108,0.587 5.281,0.76C5.455,0.934 5.542,1.139 5.542,1.375C5.542,1.611 5.455,1.816 5.281,1.99C5.108,2.163 4.903,2.25 4.667,2.25L3.458,2.25L5.375,4.167C5.542,4.334 5.622,4.531 5.615,4.76C5.608,4.989 5.521,5.187 5.354,5.354C5.187,5.521 4.986,5.604 4.75,5.604C4.514,5.604 4.313,5.521 4.146,5.354L2.25,3.458L2.25,4.667C2.25,4.903 2.163,5.108 1.99,5.281C1.816,5.455 1.611,5.542 1.375,5.542ZM10.646,5.354C10.479,5.187 10.396,4.986 10.396,4.75C10.396,4.514 10.479,4.313 10.646,4.146L12.542,2.25L11.333,2.25C11.097,2.25 10.892,2.163 10.719,1.99C10.545,1.816 10.458,1.611 10.458,1.375C10.458,1.139 10.545,0.934 10.719,0.76C10.892,0.587 11.097,0.5 11.333,0.5L14.625,0.5C14.861,0.5 15.066,0.587 15.24,0.76C15.413,0.934 15.5,1.139 15.5,1.375L15.5,4.667C15.5,4.903 15.413,5.108 15.24,5.281C15.066,5.455 14.861,5.542 14.625,5.542C14.389,5.542 14.184,5.455 14.01,5.281C13.837,5.108 13.75,4.903 13.75,4.667L13.75,3.458L11.833,5.375C11.666,5.542 11.469,5.622 11.24,5.615C11.011,5.608 10.813,5.521 10.646,5.354ZM11.333,15.5C11.097,15.5 10.892,15.413 10.719,15.24C10.545,15.066 10.458,14.861 10.458,14.625C10.458,14.389 10.545,14.184 10.719,14.01C10.892,13.837 11.097,13.75 11.333,13.75L12.521,13.75L10.625,11.854C10.458,11.687 10.375,11.486 10.375,11.25C10.375,11.014 10.465,10.806 10.646,10.625C10.813,10.458 11.017,10.375 11.26,10.375C11.503,10.375 11.708,10.458 11.875,10.625L13.75,12.521L13.75,11.333C13.75,11.097 13.837,10.892 14.01,10.719C14.184,10.545 14.389,10.458 14.625,10.458C14.861,10.458 15.066,10.545 15.24,10.719C15.413,10.892 15.5,11.097 15.5,11.333L15.5,14.625C15.5,14.861 15.413,15.066 15.24,15.24C15.066,15.413 14.861,15.5 14.625,15.5L11.333,15.5ZM1.375,15.5C1.139,15.5 0.934,15.413 0.76,15.24C0.587,15.066 0.5,14.861 0.5,14.625L0.5,11.333C0.5,11.097 0.587,10.892 0.76,10.719C0.934,10.545 1.139,10.458 1.375,10.458C1.611,10.458 1.816,10.545 1.99,10.719C2.163,10.892 2.25,11.097 2.25,11.333L2.25,12.521L4.146,10.625C4.313,10.458 4.514,10.372 4.75,10.365C4.986,10.358 5.194,10.444 5.375,10.625C5.542,10.792 5.625,10.997 5.625,11.24C5.625,11.483 5.542,11.687 5.375,11.854L3.479,13.75L4.667,13.75C4.903,13.75 5.108,13.837 5.281,14.01C5.455,14.184 5.542,14.389 5.542,14.625C5.542,14.861 5.455,15.066 5.281,15.24C5.108,15.413 4.903,15.5 4.667,15.5L1.375,15.5Z" style="fill:rgb(68,73,82);fill-rule:nonzero;"/>
    </g>
</svg>
