<svg width="100%" height="100%" viewBox="0 0 38 38" version="1.1" xmlns="http://www.w3.org/2000/svg" xmlns:xlink="http://www.w3.org/1999/xlink" xml:space="preserve" style="fill-rule:evenodd;clip-rule:evenodd;stroke-linejoin:round;stroke-miterlimit:2;">
    <g transform="matrix(1.17651,0,0,1.17651,10.2,11.3289)">
        <path d="M5.673,8.327L0.567,6.26C0.391,6.193 0.253,6.085 0.152,5.936C0.051,5.787 0,5.618 0,5.43C0,5.24 0.051,5.075 0.152,4.933C0.253,4.791 0.391,4.686 0.567,4.619L12.846,0.06C13.021,-0.008 13.187,-0.018 13.343,0.029C13.498,0.076 13.629,0.154 13.738,0.263C13.846,0.371 13.924,0.502 13.971,0.657C14.018,0.813 14.008,0.979 13.94,1.154L9.381,13.453C9.3,13.642 9.186,13.781 9.037,13.869C8.888,13.956 8.732,14 8.57,14C8.408,14 8.253,13.953 8.104,13.858C7.956,13.763 7.841,13.629 7.76,13.453L5.673,8.327ZM8.53,10.86L11.691,2.309L3.14,5.47L6.991,7.009L8.53,10.86Z" style="fill:rgb(68,73,82);fill-rule:nonzero;"/>
    </g>
</svg>
