<svg width="100%" height="100%" viewBox="0 0 38 38" version="1.1" xmlns="http://www.w3.org/2000/svg" xmlns:xlink="http://www.w3.org/1999/xlink" xml:space="preserve" style="fill-rule:evenodd;clip-rule:evenodd;stroke-linejoin:round;stroke-miterlimit:2;">
    <g transform="matrix(1.25378,0,0,1.25378,7.71629,12.7311)">
        <path d="M1.583,9.709C1.222,9.709 0.958,9.549 0.792,9.23C0.625,8.91 0.653,8.605 0.875,8.313L4.125,3.979C4.305,3.744 4.541,3.626 4.833,3.626C5.125,3.626 5.361,3.744 5.542,3.979L8.521,7.959L14.667,7.959L10.667,2.647L8.688,5.251L7.604,3.813L9.958,0.647C10.138,0.41 10.375,0.292 10.667,0.292C10.958,0.292 11.194,0.41 11.375,0.647L17.125,8.313C17.347,8.605 17.374,8.91 17.208,9.23C17.041,9.549 16.777,9.709 16.417,9.709L1.583,9.709ZM3.333,7.959L6.333,7.959L4.833,5.959L3.333,7.959ZM3.333,7.959L6.333,7.959L3.333,7.959Z" style="fill:rgb(68,73,82);fill-opacity:0.3;fill-rule:nonzero;"/>
    </g>
    <path d="M28.854,22.71L29.187,23.154C29.466,23.52 29.499,23.902 29.291,24.303C29.082,24.703 28.751,24.904 28.3,24.904L9.701,24.904C9.248,24.904 8.917,24.703 8.709,24.303C8.5,23.902 8.535,23.52 8.813,23.154L9.146,22.71L28.854,22.71Z" style="fill:rgb(68,73,82);fill-rule:nonzero;"/>
</svg>
