<svg width="100%" height="100%" viewBox="0 0 38 38" version="1.1" xmlns="http://www.w3.org/2000/svg" xmlns:xlink="http://www.w3.org/1999/xlink" xml:space="preserve" style="fill-rule:evenodd;clip-rule:evenodd;stroke-linejoin:round;stroke-miterlimit:2;">
    <g transform="matrix(1.25378,0,0,1.25378,7.71629,12.7311)">
        <path d="M1.583,9.709C1.222,9.709 0.958,9.549 0.792,9.23C0.625,8.91 0.653,8.605 0.875,8.313L4.125,3.979C4.305,3.744 4.541,3.626 4.833,3.626C5.125,3.626 5.361,3.744 5.542,3.979L8.521,7.959L14.667,7.959L10.667,2.647L8.688,5.251L7.604,3.813L9.958,0.647C10.138,0.41 10.375,0.292 10.667,0.292C10.958,0.292 11.194,0.41 11.375,0.647L17.125,8.313C17.347,8.605 17.374,8.91 17.208,9.23C17.041,9.549 16.777,9.709 16.417,9.709L1.583,9.709ZM3.333,7.959L6.333,7.959L4.833,5.959L3.333,7.959ZM3.333,7.959L6.333,7.959L3.333,7.959Z" style="fill:rgb(68,73,82);fill-rule:nonzero;"/>
    </g>
    <g id="Layer1">
        <g transform="matrix(1.96346,1.2781,1.2781,2.69548,-39.16,-51.2189)">
            <path d="M17.561,17.195L18.738,18.756L22.622,16.959L22.781,16.259L21.637,14.354L18.409,16.859L17.561,17.195Z" style="fill:rgb(68,73,82);"/>
        </g>
        <path d="M13.774,19.489L16.578,23.188L11.358,23.021L13.774,19.489Z" style="fill:rgb(68,73,82);"/>
    </g>
</svg>
