<svg width="100%" height="100%" viewBox="0 0 38 38" version="1.1" xmlns="http://www.w3.org/2000/svg" xmlns:xlink="http://www.w3.org/1999/xlink" xml:space="preserve" style="fill-rule:evenodd;clip-rule:evenodd;stroke-linejoin:round;stroke-miterlimit:2;">
    <g transform="matrix(1,0,0,1,12,18)">
        <path d="M1.475,1.975C1.212,1.975 0.984,1.878 0.79,1.685C0.597,1.491 0.5,1.263 0.5,1C0.5,0.737 0.597,0.509 0.79,0.316C0.984,0.122 1.212,0.025 1.475,0.025L12.525,0.025C12.788,0.025 13.016,0.122 13.21,0.316C13.403,0.509 13.5,0.737 13.5,1C13.5,1.263 13.403,1.491 13.21,1.685C13.016,1.878 12.788,1.975 12.525,1.975L1.475,1.975Z" style="fill:rgb(68,73,82);fill-rule:nonzero;"/>
    </g>
</svg>
