<svg width="100%" height="100%" viewBox="0 0 38 38" version="1.1" xmlns="http://www.w3.org/2000/svg" xmlns:xlink="http://www.w3.org/1999/xlink" xml:space="preserve" style="fill-rule:evenodd;clip-rule:evenodd;stroke-linejoin:round;stroke-miterlimit:2;">
    <g transform="matrix(1,0,0,1,12,12)">
        <path d="M7,13.5C6.737,13.5 6.509,13.403 6.315,13.21C6.122,13.016 6.025,12.788 6.025,12.525L6.025,7.975L1.475,7.975C1.212,7.975 0.984,7.878 0.79,7.685C0.597,7.491 0.5,7.263 0.5,7C0.5,6.737 0.597,6.509 0.79,6.315C0.984,6.122 1.212,6.025 1.475,6.025L6.025,6.025L6.025,1.475C6.025,1.212 6.122,0.984 6.315,0.79C6.509,0.597 6.737,0.5 7,0.5C7.263,0.5 7.491,0.597 7.685,0.79C7.878,0.984 7.975,1.212 7.975,1.475L7.975,6.025L12.525,6.025C12.788,6.025 13.016,6.122 13.21,6.315C13.403,6.509 13.5,6.737 13.5,7C13.5,7.263 13.403,7.491 13.21,7.685C13.016,7.878 12.788,7.975 12.525,7.975L7.975,7.975L7.975,12.525C7.975,12.788 7.878,13.016 7.685,13.21C7.491,13.403 7.263,13.5 7,13.5Z" style="fill:rgb(68,73,82);fill-rule:nonzero;"/>
    </g>
</svg>
