<?xml version="1.0" encoding="UTF-8" standalone="no"?>
<!DOCTYPE svg PUBLIC "-//W3C//DTD SVG 1.1//EN" "http://www.w3.org/Graphics/SVG/1.1/DTD/svg11.dtd">
<svg width="100%" height="100%" viewBox="0 0 38 38" version="1.1" xmlns="http://www.w3.org/2000/svg" xmlns:xlink="http://www.w3.org/1999/xlink" xml:space="preserve" xmlns:serif="http://www.serif.com/" style="fill-rule:evenodd;clip-rule:evenodd;stroke-linejoin:round;stroke-miterlimit:2;">
    <path d="M19.777,30.751L24.559,19.441C24.636,19.294 24.675,19.147 24.675,19C24.675,18.853 24.636,18.706 24.559,18.559L19.777,7.249C19.648,6.934 19.389,6.776 19,6.776C18.611,6.776 18.352,6.934 18.223,7.249L13.441,18.559C13.364,18.706 13.325,18.853 13.325,19C13.325,19.147 13.364,19.294 13.441,19.441L18.223,30.751C18.352,31.066 18.611,31.224 19,31.224C19.389,31.224 19.648,31.066 19.777,30.751ZM19,17.057C20.072,17.057 20.943,17.928 20.943,19C20.943,20.072 20.072,20.943 19,20.943C17.928,20.943 17.057,20.072 17.057,19C17.057,17.928 17.928,17.057 19,17.057Z" style="fill:rgb(174,182,199);"/>
    <path d="M13.325,19C13.325,18.853 13.364,18.706 13.441,18.559L18.223,7.249C18.352,6.934 18.611,6.776 19,6.776C19.389,6.776 19.648,6.934 19.777,7.249L24.559,18.559C24.636,18.706 24.675,18.853 24.675,19L20.943,19C20.943,17.928 20.072,17.057 19,17.057C17.928,17.057 17.057,17.928 17.057,19L13.325,19Z" style="fill:rgb(68,73,82);"/>
</svg>
