<?xml version="1.0" encoding="UTF-8" standalone="no"?>
<!DOCTYPE svg PUBLIC "-//W3C//DTD SVG 1.1//EN" "http://www.w3.org/Graphics/SVG/1.1/DTD/svg11.dtd">
<svg width="100%" height="100%" viewBox="0 0 33 33" version="1.1" xmlns="http://www.w3.org/2000/svg" xmlns:xlink="http://www.w3.org/1999/xlink" xml:space="preserve" xmlns:serif="http://www.serif.com/" style="fill-rule:evenodd;clip-rule:evenodd;stroke-linejoin:round;stroke-miterlimit:2;">
    <g transform="matrix(1,0,0,1,-3.24298,2.63257)">
        <g transform="matrix(1.20712,0,0,1.20712,14.9145,2.51292)">
            <path d="M2.5,9.406L0,9.406L4,17.875L8,9.406L5.5,9.406C5.483,10.22 4.818,10.875 4,10.875C3.182,10.875 2.517,10.22 2.5,9.406Z" style="fill:rgb(29,50,98);fill-opacity:0.35;"/>
        </g>
        <g transform="matrix(1.20712,0,0,1.20712,14.9145,2.51292)">
            <path d="M4,0.938L0,9.406L2.5,9.406L2.5,9.375C2.5,8.547 3.172,7.875 4,7.875C4.828,7.875 5.5,8.547 5.5,9.375L5.5,9.406L8,9.406L4,0.938Z" style="fill:rgb(68,73,82);"/>
        </g>
    </g>
</svg>
