<?xml version="1.0" encoding="UTF-8" standalone="no"?>
<!DOCTYPE svg PUBLIC "-//W3C//DTD SVG 1.1//EN" "http://www.w3.org/Graphics/SVG/1.1/DTD/svg11.dtd">
<svg width="100%" height="100%" viewBox="0 0 33 33" version="1.1" xmlns="http://www.w3.org/2000/svg" xmlns:xlink="http://www.w3.org/1999/xlink" xml:space="preserve" xmlns:serif="http://www.serif.com/" style="fill-rule:evenodd;clip-rule:evenodd;stroke-linejoin:round;stroke-miterlimit:2;">
    <g transform="matrix(1,0,0,1,9,9)">
        <path d="M0.875,5.042C0.639,5.042 0.434,4.955 0.26,4.781C0.087,4.608 0,4.403 0,4.167L0,0.875C0,0.639 0.087,0.434 0.26,0.26C0.434,0.087 0.639,0 0.875,0L4.167,0C4.403,0 4.608,0.087 4.781,0.26C4.955,0.434 5.042,0.639 5.042,0.875C5.042,1.111 4.955,1.316 4.781,1.49C4.608,1.663 4.403,1.75 4.167,1.75L2.958,1.75L4.875,3.667C5.042,3.834 5.122,4.031 5.115,4.26C5.108,4.489 5.021,4.687 4.854,4.854C4.687,5.021 4.486,5.104 4.25,5.104C4.014,5.104 3.813,5.021 3.646,4.854L1.75,2.958L1.75,4.167C1.75,4.403 1.663,4.608 1.49,4.781C1.316,4.955 1.111,5.042 0.875,5.042ZM10.146,4.854C9.979,4.687 9.896,4.486 9.896,4.25C9.896,4.014 9.979,3.813 10.146,3.646L12.042,1.75L10.833,1.75C10.597,1.75 10.392,1.663 10.219,1.49C10.045,1.316 9.958,1.111 9.958,0.875C9.958,0.639 10.045,0.434 10.219,0.26C10.392,0.087 10.597,0 10.833,0L14.125,0C14.361,0 14.566,0.087 14.74,0.26C14.913,0.434 15,0.639 15,0.875L15,4.167C15,4.403 14.913,4.608 14.74,4.781C14.566,4.955 14.361,5.042 14.125,5.042C13.889,5.042 13.684,4.955 13.51,4.781C13.337,4.608 13.25,4.403 13.25,4.167L13.25,2.958L11.333,4.875C11.166,5.042 10.969,5.122 10.74,5.115C10.511,5.108 10.313,5.021 10.146,4.854ZM10.833,15C10.597,15 10.392,14.913 10.219,14.74C10.045,14.566 9.958,14.361 9.958,14.125C9.958,13.889 10.045,13.684 10.219,13.51C10.392,13.337 10.597,13.25 10.833,13.25L12.021,13.25L10.125,11.354C9.958,11.187 9.875,10.986 9.875,10.75C9.875,10.514 9.965,10.306 10.146,10.125C10.313,9.958 10.517,9.875 10.76,9.875C11.003,9.875 11.208,9.958 11.375,10.125L13.25,12.021L13.25,10.833C13.25,10.597 13.337,10.392 13.51,10.219C13.684,10.045 13.889,9.958 14.125,9.958C14.361,9.958 14.566,10.045 14.74,10.219C14.913,10.392 15,10.597 15,10.833L15,14.125C15,14.361 14.913,14.566 14.74,14.74C14.566,14.913 14.361,15 14.125,15L10.833,15ZM0.875,15C0.639,15 0.434,14.913 0.26,14.74C0.087,14.566 0,14.361 0,14.125L0,10.833C0,10.597 0.087,10.392 0.26,10.219C0.434,10.045 0.639,9.958 0.875,9.958C1.111,9.958 1.316,10.045 1.49,10.219C1.663,10.392 1.75,10.597 1.75,10.833L1.75,12.021L3.646,10.125C3.813,9.958 4.014,9.872 4.25,9.865C4.486,9.858 4.694,9.944 4.875,10.125C5.042,10.292 5.125,10.497 5.125,10.74C5.125,10.983 5.042,11.187 4.875,11.354L2.979,13.25L4.167,13.25C4.403,13.25 4.608,13.337 4.781,13.51C4.955,13.684 5.042,13.889 5.042,14.125C5.042,14.361 4.955,14.566 4.781,14.74C4.608,14.913 4.403,15 4.167,15L0.875,15Z" style="fill:rgb(68,73,82);fill-rule:nonzero;"/>
    </g>
</svg>
