<?xml version="1.0" encoding="UTF-8" standalone="no"?>
<!DOCTYPE svg PUBLIC "-//W3C//DTD SVG 1.1//EN" "http://www.w3.org/Graphics/SVG/1.1/DTD/svg11.dtd">
<svg width="100%" height="100%" viewBox="0 0 33 33" version="1.1" xmlns="http://www.w3.org/2000/svg" xmlns:xlink="http://www.w3.org/1999/xlink" xml:space="preserve" xmlns:serif="http://www.serif.com/" style="fill-rule:evenodd;clip-rule:evenodd;stroke-linejoin:round;stroke-miterlimit:2;">
    <g transform="matrix(1,0,0,1,8.49996,8.5)">
        <path d="M1.434,5.576C1.2,5.576 0.997,5.49 0.825,5.317C0.653,5.146 0.567,4.943 0.567,4.709C0.567,4.475 0.653,4.272 0.825,4.1C0.997,3.929 1.2,3.843 1.434,3.843L2.609,3.843L0.732,1.965C0.567,1.8 0.488,1.597 0.495,1.356C0.502,1.115 0.588,0.913 0.753,0.748C0.918,0.583 1.121,0.5 1.361,0.5C1.602,0.5 1.805,0.583 1.97,0.748L3.828,2.624L3.828,1.449C3.828,1.215 3.913,1.012 4.085,0.84C4.257,0.668 4.46,0.582 4.694,0.582C4.928,0.582 5.131,0.668 5.302,0.84C5.475,1.012 5.561,1.215 5.561,1.449L5.561,4.709C5.561,4.943 5.475,5.146 5.302,5.317C5.131,5.49 4.928,5.576 4.694,5.576L1.434,5.576ZM14.557,5.576L11.296,5.576C11.063,5.576 10.86,5.49 10.688,5.317C10.516,5.146 10.43,4.943 10.43,4.709L10.43,1.449C10.43,1.215 10.516,1.012 10.688,0.84C10.86,0.668 11.063,0.582 11.296,0.582C11.531,0.582 11.734,0.668 11.906,0.84C12.077,1.012 12.163,1.215 12.163,1.449L12.163,2.624L14.041,0.748C14.206,0.583 14.409,0.5 14.65,0.5C14.89,0.5 15.093,0.583 15.258,0.748C15.423,0.913 15.506,1.115 15.506,1.356C15.506,1.597 15.423,1.8 15.258,1.965L13.381,3.843L14.557,3.843C14.791,3.843 14.994,3.929 15.166,4.1C15.338,4.272 15.424,4.475 15.424,4.709C15.424,4.943 15.338,5.146 15.166,5.317C14.994,5.49 14.791,5.576 14.557,5.576ZM0.753,15.252C0.588,15.087 0.506,14.888 0.506,14.654C0.506,14.42 0.588,14.221 0.753,14.056L2.63,12.178L1.434,12.178C1.2,12.178 0.997,12.092 0.825,11.921C0.653,11.749 0.567,11.546 0.567,11.312C0.567,11.078 0.653,10.875 0.825,10.703C0.997,10.531 1.2,10.445 1.434,10.445L4.694,10.445C4.928,10.445 5.131,10.531 5.302,10.703C5.475,10.875 5.561,11.078 5.561,11.312L5.561,14.572C5.561,14.806 5.475,15.009 5.302,15.181C5.131,15.353 4.928,15.439 4.694,15.439C4.46,15.439 4.257,15.353 4.085,15.181C3.913,15.009 3.828,14.806 3.828,14.572L3.828,13.376L1.95,15.252C1.785,15.418 1.585,15.5 1.351,15.5C1.118,15.5 0.918,15.418 0.753,15.252ZM11.296,15.439C11.063,15.439 10.86,15.353 10.688,15.181C10.516,15.009 10.43,14.806 10.43,14.572L10.43,11.312C10.43,11.078 10.516,10.875 10.688,10.703C10.86,10.531 11.063,10.445 11.296,10.445L14.557,10.445C14.791,10.445 14.994,10.531 15.166,10.703C15.338,10.875 15.424,11.078 15.424,11.312C15.424,11.546 15.338,11.749 15.166,11.921C14.994,12.092 14.791,12.178 14.557,12.178L13.36,12.178L15.237,14.056C15.402,14.221 15.485,14.42 15.485,14.654C15.485,14.888 15.402,15.087 15.237,15.252C15.072,15.418 14.873,15.5 14.639,15.5C14.405,15.5 14.206,15.418 14.041,15.252L12.163,13.376L12.163,14.572C12.163,14.806 12.077,15.009 11.906,15.181C11.734,15.353 11.531,15.439 11.296,15.439Z" style="fill:rgb(68,73,82);fill-rule:nonzero;"/>
    </g>
</svg>
