<?xml version="1.0" encoding="UTF-8" standalone="no"?>
<!DOCTYPE svg PUBLIC "-//W3C//DTD SVG 1.1//EN" "http://www.w3.org/Graphics/SVG/1.1/DTD/svg11.dtd">
<svg width="100%" height="100%" viewBox="0 0 33 33" version="1.1" xmlns="http://www.w3.org/2000/svg" xmlns:xlink="http://www.w3.org/1999/xlink" xml:space="preserve" xmlns:serif="http://www.serif.com/" style="fill-rule:evenodd;clip-rule:evenodd;stroke-linejoin:round;stroke-miterlimit:2;">
    <g transform="matrix(1,0,0,1,9.50001,9.25)">
        <path d="M5.673,8.577L0.567,6.51C0.391,6.443 0.253,6.335 0.152,6.186C0.051,6.037 0,5.868 0,5.68C0,5.49 0.051,5.325 0.152,5.183C0.253,5.041 0.391,4.936 0.567,4.869L12.846,0.31C13.021,0.242 13.187,0.232 13.343,0.279C13.498,0.326 13.629,0.404 13.738,0.513C13.846,0.621 13.924,0.752 13.971,0.907C14.018,1.063 14.008,1.229 13.94,1.404L9.381,13.703C9.3,13.892 9.186,14.031 9.037,14.119C8.888,14.206 8.732,14.25 8.57,14.25C8.408,14.25 8.253,14.203 8.104,14.108C7.956,14.013 7.841,13.879 7.76,13.703L5.673,8.577ZM8.53,11.11L11.691,2.559L3.14,5.72L6.991,7.259L8.53,11.11Z" style="fill:rgb(68,73,82);fill-rule:nonzero;"/>
    </g>
</svg>
