<?xml version="1.0" encoding="UTF-8" standalone="no"?>
<!DOCTYPE svg PUBLIC "-//W3C//DTD SVG 1.1//EN" "http://www.w3.org/Graphics/SVG/1.1/DTD/svg11.dtd">
<svg width="100%" height="100%" viewBox="0 0 33 33" version="1.1" xmlns="http://www.w3.org/2000/svg" xmlns:xlink="http://www.w3.org/1999/xlink" xml:space="preserve" xmlns:serif="http://www.serif.com/" style="fill-rule:evenodd;clip-rule:evenodd;stroke-linejoin:round;stroke-miterlimit:2;">
    <g transform="matrix(1,0,0,1,9.50001,8.89492)">
        <path d="M5.673,8.932L0.567,6.865C0.391,6.798 0.253,6.69 0.152,6.541C0.051,6.392 0,6.223 0,6.035C0,5.846 0.051,5.68 0.152,5.538C0.253,5.396 0.391,5.291 0.567,5.224L12.846,0.665C13.021,0.597 13.187,0.587 13.343,0.634C13.498,0.682 13.629,0.759 13.738,0.868C13.846,0.976 13.924,1.107 13.971,1.262C14.018,1.418 14.008,1.584 13.94,1.759L9.381,14.059C9.3,14.247 9.186,14.386 9.037,14.474C8.888,14.561 8.732,14.605 8.57,14.605C8.408,14.605 8.253,14.558 8.104,14.463C7.956,14.368 7.841,14.233 7.76,14.059L5.673,8.932Z" style="fill:rgb(68,73,82);fill-rule:nonzero;"/>
    </g>
    <g transform="matrix(0.598546,0.598546,-0.707107,0.707107,11.7313,1.9674)">
        <rect x="6.516" y="3.78" width="19.271" height="0.716" style="fill:rgb(229,0,0);"/>
    </g>
</svg>
