<svg width="33" height="33" viewBox="0 0 33 33" fill="none" xmlns="http://www.w3.org/2000/svg">
<path fill-rule="evenodd" clip-rule="evenodd" d="M16.5 23.15C20.1727 23.15 23.15 20.1727 23.15 16.5C23.15 12.8273 20.1727 9.85 16.5 9.85C12.8273 9.85 9.85 12.8273 9.85 16.5C9.85 20.1727 12.8273 23.15 16.5 23.15ZM16.5 25C21.1944 25 25 21.1944 25 16.5C25 11.8056 21.1944 8 16.5 8C11.8056 8 8 11.8056 8 16.5C8 21.1944 11.8056 25 16.5 25Z" fill="#444952"/>
<path fill-rule="evenodd" clip-rule="evenodd" d="M14.9069 24.6315C11.9661 19.4851 11.9661 13.5794 14.9069 8.43297L16.5131 9.35083C13.8973 13.9285 13.8973 19.136 16.5131 23.7136L14.9069 24.6315Z" fill="#444952"/>
<path fill-rule="evenodd" clip-rule="evenodd" d="M18.0231 24.6315C20.9639 19.4851 20.9639 13.5794 18.0231 8.43297L16.4169 9.35083C19.0327 13.9285 19.0327 19.136 16.4169 23.7136L18.0231 24.6315Z" fill="#444952"/>
<path d="M9.01758 12.8H24V14.65H9.01758V12.8Z" fill="#444952"/>
<path d="M9.45752 18.35H23.5601V20.2H9.45752V18.35Z" fill="#444952"/>
</svg>
