<?xml version="1.0" encoding="UTF-8" standalone="no"?>
<!DOCTYPE svg PUBLIC "-//W3C//DTD SVG 1.1//EN" "http://www.w3.org/Graphics/SVG/1.1/DTD/svg11.dtd">
<svg width="100%" height="100%" viewBox="0 0 33 33" version="1.1" xmlns="http://www.w3.org/2000/svg" xmlns:xlink="http://www.w3.org/1999/xlink" xml:space="preserve" xmlns:serif="http://www.serif.com/" style="fill-rule:evenodd;clip-rule:evenodd;stroke-linejoin:round;stroke-miterlimit:2;">
    <g transform="matrix(0.831513,0,0,0.831513,6.52184,6.52184)">
        <path d="M12,22C10.633,22 9.342,21.738 8.125,21.212C6.908,20.688 5.846,19.971 4.938,19.063C4.029,18.154 3.313,17.092 2.788,15.875C2.263,14.658 2,13.367 2,12C2,10.617 2.263,9.321 2.788,8.112C3.313,6.904 4.029,5.846 4.938,4.938C5.846,4.029 6.908,3.313 8.125,2.787C9.342,2.262 10.633,2 12,2C13.383,2 14.679,2.262 15.888,2.787C17.096,3.313 18.154,4.029 19.063,4.938C19.971,5.846 20.688,6.904 21.213,8.112C21.738,9.321 22,10.617 22,12C22,13.367 21.738,14.658 21.213,15.875C20.688,17.092 19.971,18.154 19.063,19.063C18.154,19.971 17.096,20.688 15.888,21.212C14.679,21.738 13.383,22 12,22ZM12,19.95C12.433,19.35 12.808,18.725 13.125,18.075C13.442,17.425 13.7,16.733 13.9,16L10.1,16C10.3,16.733 10.558,17.425 10.875,18.075C11.192,18.725 11.567,19.35 12,19.95ZM9.4,19.55C9.1,19 8.838,18.429 8.613,17.838C8.388,17.246 8.2,16.633 8.05,16L5.1,16C5.583,16.833 6.188,17.558 6.913,18.175C7.638,18.792 8.467,19.25 9.4,19.55ZM14.6,19.55C15.533,19.25 16.363,18.792 17.088,18.175C17.813,17.558 18.417,16.833 18.9,16L15.95,16C15.8,16.633 15.613,17.246 15.388,17.838C15.163,18.429 14.9,19 14.6,19.55ZM4.25,14L7.65,14C7.6,13.667 7.563,13.337 7.538,13.012C7.513,12.688 7.5,12.35 7.5,12C7.5,11.65 7.513,11.313 7.538,10.987C7.563,10.663 7.6,10.333 7.65,10L4.25,10C4.167,10.333 4.104,10.663 4.063,10.987C4.021,11.313 4,11.65 4,12C4,12.35 4.021,12.688 4.063,13.012C4.104,13.337 4.167,13.667 4.25,14ZM9.65,14L14.35,14C14.4,13.667 14.438,13.337 14.463,13.012C14.488,12.688 14.5,12.35 14.5,12C14.5,11.65 14.488,11.313 14.463,10.987C14.438,10.663 14.4,10.333 14.35,10L9.65,10C9.6,10.333 9.563,10.663 9.538,10.987C9.513,11.313 9.5,11.65 9.5,12C9.5,12.35 9.513,12.688 9.538,13.012C9.563,13.337 9.6,13.667 9.65,14ZM16.35,14L19.75,14C19.833,13.667 19.896,13.337 19.938,13.012C19.979,12.688 20,12.35 20,12C20,11.65 19.979,11.313 19.938,10.987C19.896,10.663 19.833,10.333 19.75,10L16.35,10C16.4,10.333 16.438,10.663 16.463,10.987C16.488,11.313 16.5,11.65 16.5,12C16.5,12.35 16.488,12.688 16.463,13.012C16.438,13.337 16.4,13.667 16.35,14ZM15.95,8L18.9,8C18.417,7.167 17.813,6.442 17.088,5.825C16.363,5.208 15.533,4.75 14.6,4.45C14.9,5 15.163,5.571 15.388,6.162C15.613,6.754 15.8,7.367 15.95,8ZM10.1,8L13.9,8C13.7,7.267 13.442,6.575 13.125,5.925C12.808,5.275 12.433,4.65 12,4.05C11.567,4.65 11.192,5.275 10.875,5.925C10.558,6.575 10.3,7.267 10.1,8ZM5.1,8L8.05,8C8.2,7.367 8.388,6.754 8.613,6.162C8.838,5.571 9.1,5 9.4,4.45C8.467,4.75 7.638,5.208 6.913,5.825C6.188,6.442 5.583,7.167 5.1,8Z" style="fill:rgb(68,73,82);fill-rule:nonzero;"/>
    </g>
</svg>
