<svg width="33" height="33" viewBox="0 0 33 33" fill="none" xmlns="http://www.w3.org/2000/svg">
<path fill-rule="evenodd" clip-rule="evenodd" d="M26.5 9.85H6.5C6.41716 9.85 6.35 9.91716 6.35 10V23C6.35 23.0828 6.41716 23.15 6.5 23.15H26.5C26.5828 23.15 26.65 23.0828 26.65 23V10C26.65 9.91716 26.5828 9.85 26.5 9.85ZM6.5 8C5.39543 8 4.5 8.89543 4.5 10V23C4.5 24.1046 5.39543 25 6.5 25H26.5C27.6046 25 28.5 24.1046 28.5 23V10C28.5 8.89543 27.6046 8 26.5 8H6.5Z" fill="#444952"/>
<path d="M5.5 12.8H28.5V14.65H5.5V12.8Z" fill="#444952"/>
<path d="M10.0375 25L10.0375 8L11.8875 8L11.8875 25H10.0375Z" fill="#444952"/>
<path d="M15.5751 25L15.5751 8L17.4251 8L17.4251 25H15.5751Z" fill="#444952"/>
<path d="M21.1127 25V8L22.9627 8L22.9627 25H21.1127Z" fill="#444952"/>
<path d="M5.5 18.35H28.5V20.2H5.5V18.35Z" fill="#444952"/>
</svg>
