<?xml version="1.0" encoding="UTF-8" standalone="no"?>
<!DOCTYPE svg PUBLIC "-//W3C//DTD SVG 1.1//EN" "http://www.w3.org/Graphics/SVG/1.1/DTD/svg11.dtd">
<svg width="100%" height="100%" viewBox="0 0 33 33" version="1.1" xmlns="http://www.w3.org/2000/svg" xmlns:xlink="http://www.w3.org/1999/xlink" xml:space="preserve" xmlns:serif="http://www.serif.com/" style="fill-rule:evenodd;clip-rule:evenodd;stroke-linejoin:round;stroke-miterlimit:2;">
    <g transform="matrix(0.926823,0,0,0.926823,5.37813,5.37813)">
        <path d="M15,21L9,18.9L4.35,20.7C4.017,20.833 3.708,20.796 3.425,20.587C3.142,20.379 3,20.1 3,19.75L3,5.75C3,5.533 3.063,5.342 3.188,5.175C3.313,5.008 3.483,4.883 3.7,4.8L9,3L15,5.1L19.65,3.3C19.983,3.167 20.292,3.204 20.575,3.412C20.858,3.621 21,3.9 21,4.25L21,18.25C21,18.467 20.938,18.658 20.813,18.825C20.688,18.992 20.517,19.117 20.3,19.2L15,21ZM14,18.55L14,6.85L10,5.45L10,17.15L14,18.55ZM16,18.55L19,17.55L19,5.7L16,6.85L16,18.55ZM5,18.3L8,17.15L8,5.45L5,6.45L5,18.3ZM16,6.85L16,18.55L16,6.85ZM8,5.45L8,17.15L8,5.45Z" style="fill:rgb(68,73,82);fill-rule:nonzero;"/>
    </g>
</svg>
