<?xml version="1.0" encoding="UTF-8" standalone="no"?>
<!DOCTYPE svg PUBLIC "-//W3C//DTD SVG 1.1//EN" "http://www.w3.org/Graphics/SVG/1.1/DTD/svg11.dtd">
<svg width="100%" height="100%" viewBox="0 0 33 33" version="1.1" xmlns="http://www.w3.org/2000/svg" xmlns:xlink="http://www.w3.org/1999/xlink" xml:space="preserve" xmlns:serif="http://www.serif.com/" style="fill-rule:evenodd;clip-rule:evenodd;stroke-linejoin:round;stroke-miterlimit:2;">
    <g transform="matrix(1,0,0,1,9.5,15.25)">
        <path d="M1.475,2.225C1.212,2.225 0.984,2.128 0.79,1.935C0.597,1.741 0.5,1.513 0.5,1.25C0.5,0.987 0.597,0.759 0.79,0.566C0.984,0.372 1.212,0.275 1.475,0.275L12.525,0.275C12.788,0.275 13.016,0.372 13.21,0.566C13.403,0.759 13.5,0.987 13.5,1.25C13.5,1.513 13.403,1.741 13.21,1.935C13.016,2.128 12.788,2.225 12.525,2.225L1.475,2.225Z" style="fill:rgb(68,73,82);fill-rule:nonzero;"/>
    </g>
</svg>
