<?xml version="1.0" encoding="UTF-8" standalone="no"?>
<!DOCTYPE svg PUBLIC "-//W3C//DTD SVG 1.1//EN" "http://www.w3.org/Graphics/SVG/1.1/DTD/svg11.dtd">
<svg width="100%" height="100%" viewBox="0 0 33 33" version="1.1" xmlns="http://www.w3.org/2000/svg" xmlns:xlink="http://www.w3.org/1999/xlink" xml:space="preserve" xmlns:serif="http://www.serif.com/" style="fill-rule:evenodd;clip-rule:evenodd;stroke-linejoin:round;stroke-miterlimit:2;">
    <g transform="matrix(1,0,0,1,9.5,9.25)">
        <path d="M7,13.75C6.737,13.75 6.509,13.653 6.315,13.46C6.122,13.266 6.025,13.038 6.025,12.775L6.025,8.225L1.475,8.225C1.212,8.225 0.984,8.128 0.79,7.935C0.597,7.741 0.5,7.513 0.5,7.25C0.5,6.987 0.597,6.759 0.79,6.565C0.984,6.372 1.212,6.275 1.475,6.275L6.025,6.275L6.025,1.725C6.025,1.462 6.122,1.234 6.315,1.04C6.509,0.847 6.737,0.75 7,0.75C7.263,0.75 7.491,0.847 7.685,1.04C7.878,1.234 7.975,1.462 7.975,1.725L7.975,6.275L12.525,6.275C12.788,6.275 13.016,6.372 13.21,6.565C13.403,6.759 13.5,6.987 13.5,7.25C13.5,7.513 13.403,7.741 13.21,7.935C13.016,8.128 12.788,8.225 12.525,8.225L7.975,8.225L7.975,12.775C7.975,13.038 7.878,13.266 7.685,13.46C7.491,13.653 7.263,13.75 7,13.75Z" style="fill:rgb(68,73,82);fill-rule:nonzero;"/>
    </g>
</svg>
