<svg width="100%" height="100%" viewBox="0 0 38 38" version="1.1" xmlns="http://www.w3.org/2000/svg" xmlns:xlink="http://www.w3.org/1999/xlink" xml:space="preserve" style="fill-rule:evenodd;clip-rule:evenodd;stroke-linejoin:round;stroke-miterlimit:2;">
    <path d="M19.777,30.751L24.559,19.441C24.636,19.294 24.675,19.147 24.675,19C24.675,18.853 24.636,18.706 24.559,18.559L19.777,7.249C19.648,6.934 19.389,6.776 19,6.776C18.611,6.776 18.352,6.934 18.223,7.249L13.441,18.559C13.364,18.706 13.325,18.853 13.325,19C13.325,19.147 13.364,19.294 13.441,19.441L18.223,30.751C18.352,31.066 18.611,31.224 19,31.224C19.389,31.224 19.648,31.066 19.777,30.751ZM15.155,19L19,28.096L22.845,19L19,9.904L15.155,19Z" style="fill:rgb(68,73,82);"/>
    <g transform="matrix(1,0,0,1,-0.785303,-0.720038)">
        <path d="M14.11,19.72L25.461,19.72C25.461,19.573 25.422,19.426 25.344,19.279L20.563,7.969C20.433,7.654 20.174,7.497 19.785,7.497C19.397,7.497 19.137,7.654 19.008,7.969L14.227,19.279C14.149,19.426 14.11,19.573 14.11,19.72Z" style="fill:rgb(68,73,82);"/>
    </g>
    <g transform="matrix(1.62941,0,0,1,-9.13133,0)">
        <rect x="14.508" y="18.461" width="5.391" height="1.042" style="fill:rgb(68,73,82);"/>
    </g>
</svg>
