<?xml version="1.0" encoding="UTF-8" standalone="no"?>
<!DOCTYPE svg PUBLIC "-//W3C//DTD SVG 1.1//EN" "http://www.w3.org/Graphics/SVG/1.1/DTD/svg11.dtd">
<svg width="100%" height="100%" viewBox="0 0 215 41" version="1.1" xmlns="http://www.w3.org/2000/svg" xmlns:xlink="http://www.w3.org/1999/xlink" xml:space="preserve" xmlns:serif="http://www.serif.com/" style="fill-rule:evenodd;clip-rule:evenodd;stroke-linejoin:round;stroke-miterlimit:2;">
    <g transform="matrix(1,0,0,1,-9.41979e-05,0.000178727)">
        <g transform="matrix(1,0,0,1,-1.20801,-0.711928)">
            <path d="M58.567,28.139L58.567,20.497C58.567,18.616 57.566,16.908 55.595,16.908C53.654,16.908 52.508,18.616 52.508,20.497L52.508,28.139L48.922,28.139L48.922,13.84L52.244,13.84L52.508,15.578C53.273,14.129 54.949,13.609 56.33,13.609C58.066,13.609 59.8,14.304 60.624,16.271C61.918,14.245 63.595,13.667 65.476,13.667C69.593,13.667 71.622,16.155 71.622,20.44L71.622,28.139L68.034,28.139L68.034,20.44C68.034,18.559 67.24,16.966 65.301,16.966C63.359,16.966 62.153,18.616 62.153,20.497L62.153,28.139L58.567,28.139Z" style="fill:rgb(51,51,89);fill-rule:nonzero;"/>
            <path d="M86.765,13.87L90.206,13.87L90.206,28.139L86.824,28.139L86.647,26.056C85.825,27.734 83.561,28.543 81.943,28.573C77.651,28.603 74.474,25.997 74.474,20.989C74.474,16.069 77.798,13.493 82.033,13.522C83.973,13.522 85.824,14.419 86.647,15.838L86.765,13.87ZM78.062,20.989C78.062,23.71 79.973,25.331 82.355,25.331C88,25.331 88,16.677 82.355,16.677C79.973,16.677 78.062,18.269 78.062,20.989Z" style="fill:rgb(51,51,89);fill-rule:nonzero;"/>
            <path d="M93.236,34.105L93.236,13.87L96.589,13.87L96.822,15.838C97.94,14.245 99.882,13.551 101.528,13.551C105.996,13.551 108.968,16.822 108.968,21.019C108.968,25.187 106.291,28.487 101.645,28.487C100.118,28.487 97.852,28.023 96.822,26.461L96.822,34.104L93.236,34.104L93.236,34.105ZM105.381,21.019C105.381,18.791 103.851,16.966 101.264,16.966C98.676,16.966 97.146,18.791 97.146,21.019C97.146,23.247 98.823,25.073 101.264,25.073C103.705,25.073 105.381,23.247 105.381,21.019Z" style="fill:rgb(51,51,89);fill-rule:nonzero;"/>
            <path d="M115.378,9.528L115.378,13.84L120.319,13.84L120.319,15.026L115.378,15.026L115.378,23.739C115.378,25.679 115.791,27.04 118.055,27.04C118.76,27.04 119.554,26.808 120.289,26.461L120.789,27.617C119.877,28.054 118.965,28.342 118.055,28.342C114.968,28.342 113.967,26.547 113.967,23.74L113.967,15.027L110.879,15.027L110.879,13.84L113.967,13.84L113.967,9.672L115.378,9.528Z" style="fill:rgb(51,51,89);fill-rule:nonzero;"/>
            <path d="M125.554,9.18C125.554,10.685 123.23,10.685 123.23,9.18C123.23,7.675 125.554,7.675 125.554,9.18ZM123.643,13.782L123.643,28.14L125.082,28.14L125.082,13.782L123.643,13.782Z" style="fill:rgb(51,51,89);fill-rule:nonzero;"/>
            <rect x="129.199" y="7.878" width="1.441" height="20.261" style="fill:rgb(51,51,89);"/>
            <path d="M153.488,13.84L153.547,16.389C154.459,14.448 156.518,13.696 158.37,13.696C159.459,13.667 160.515,13.956 161.486,14.536L160.839,15.693C160.076,15.23 159.221,15.027 158.37,15.027C155.663,15.057 153.576,17.198 153.576,19.804L153.576,28.14L152.135,28.14L152.135,13.84L153.488,13.84Z" style="fill:rgb(51,51,89);fill-rule:nonzero;"/>
            <path d="M135.54,23.414C135.541,23.415 135.543,23.417 135.543,23.418L147.303,20.354C147.302,20.349 147.302,20.345 147.302,20.341L135.54,23.414Z" style="fill:rgb(51,51,89);fill-rule:nonzero;"/>
            <path d="M141.214,27.28C138.654,27.28 136.461,25.701 135.543,23.458L135.535,23.458L135.542,23.457C135.542,23.456 135.541,23.455 135.54,23.454L147.301,20.38C147.301,20.385 147.302,20.389 147.302,20.394L148.555,20.068C148.049,16.446 144.956,13.658 141.214,13.658C137.12,13.658 133.802,16.996 133.802,21.113C133.802,25.23 137.12,28.569 141.214,28.569C144.276,28.569 146.905,26.7 148.035,24.037L146.855,23.532C145.921,25.734 143.747,27.28 141.214,27.28ZM135.083,21.113C135.083,17.708 137.828,14.946 141.214,14.946C143.862,14.946 146.117,16.634 146.976,18.999L135.16,22.085C135.11,21.768 135.083,21.444 135.083,21.113Z" style="fill:rgb(51,51,89);fill-rule:nonzero;"/>
        </g>
        <g transform="matrix(1,0,0,1,-1.20801,-0.711928)">
            <path d="M11.965,33.743C14.023,35.769 19.5,41.264 19.497,41.269C19.477,41.305 24.938,35.908 27.113,33.768L19.526,26.3L11.965,33.743Z" style="fill:rgb(58,24,136);fill-rule:nonzero;"/>
            <path d="M19.526,26.3L27.113,33.768C27.124,33.756 27.138,33.741 27.15,33.731L34.73,26.27L27.143,18.802L19.526,26.3Z" style="fill:rgb(3,161,196);fill-rule:nonzero;"/>
            <path d="M34.73,26.27L34.749,26.25C38.942,22.123 38.945,15.435 34.762,11.302L27.144,18.802L34.73,26.27Z" style="fill:rgb(5,208,223);fill-rule:nonzero;"/>
            <path d="M11.908,18.802L4.349,26.243C4.351,26.245 4.352,26.248 4.355,26.25L11.953,33.73C11.957,33.734 11.961,33.738 11.966,33.743L19.526,26.3L11.908,18.802Z" style="fill:rgb(118,31,232);fill-rule:nonzero;"/>
            <path d="M19.526,11.303L27.143,18.802L34.762,11.303C34.755,11.298 34.753,11.295 34.749,11.29L27.15,3.81C27.149,3.808 27.146,3.806 27.144,3.804L19.526,11.303Z" style="fill:rgb(255,170,1);fill-rule:nonzero;"/>
            <path d="M4.317,11.328C0.161,15.46 0.172,22.124 4.349,26.243L11.908,18.802L4.317,11.328Z" style="fill:rgb(241,23,93);fill-rule:nonzero;"/>
            <path d="M19.526,11.303L11.934,3.829L4.355,11.29C4.341,11.303 4.33,11.317 4.316,11.329L11.908,18.802L19.526,11.303Z" style="fill:rgb(251,58,27);fill-rule:nonzero;"/>
            <path d="M27.144,3.804C22.946,-0.321 16.148,-0.319 11.953,3.81L11.934,3.829L19.526,11.303L27.144,3.804Z" style="fill:rgb(251,201,53);fill-rule:nonzero;"/>
        </g>
        <g>
            <g transform="matrix(1.45413,0,0,1,-169.409,0.0892285)">
                <clipPath id="_clip1">
                    <path d="M230.883,4.272L251.826,12.076L247.87,34.519L226.928,26.715L230.883,4.272Z"/>
                </clipPath>
                <g clip-path="url(#_clip1)">
                    <path d="M270.382,12.81L232.413,12.81C231.562,12.81 230.871,13.815 230.871,15.052L230.871,25.472C230.871,26.692 231.552,27.683 232.391,27.683L270.382,27.683L270.382,12.81Z" style="fill:rgb(251,58,27);"/>
                </g>
            </g>
            <g transform="matrix(0.364213,0,0,0.364213,-18.0413,0.200674)">
                <g transform="matrix(30.2678,0,0,30.2678,514.098,66.0889)">
                    <path d="M0.158,-0.238C0.158,-0.211 0.163,-0.187 0.172,-0.168C0.181,-0.149 0.194,-0.133 0.211,-0.121C0.228,-0.108 0.247,-0.099 0.269,-0.094C0.29,-0.088 0.314,-0.085 0.339,-0.085C0.366,-0.085 0.39,-0.088 0.409,-0.095C0.428,-0.101 0.444,-0.109 0.456,-0.119C0.468,-0.129 0.477,-0.14 0.482,-0.154C0.487,-0.167 0.49,-0.18 0.49,-0.193C0.49,-0.22 0.484,-0.241 0.472,-0.254C0.459,-0.267 0.446,-0.276 0.431,-0.281C0.406,-0.29 0.376,-0.299 0.343,-0.308C0.309,-0.316 0.267,-0.327 0.218,-0.34C0.187,-0.348 0.162,-0.359 0.142,-0.372C0.121,-0.385 0.105,-0.399 0.093,-0.415C0.081,-0.431 0.073,-0.448 0.068,-0.466C0.063,-0.484 0.06,-0.502 0.06,-0.521C0.06,-0.557 0.068,-0.588 0.083,-0.615C0.097,-0.641 0.117,-0.663 0.142,-0.68C0.167,-0.697 0.195,-0.71 0.226,-0.719C0.257,-0.727 0.289,-0.731 0.321,-0.731C0.358,-0.731 0.393,-0.726 0.427,-0.717C0.46,-0.707 0.489,-0.692 0.514,-0.673C0.539,-0.654 0.558,-0.63 0.573,-0.602C0.588,-0.573 0.595,-0.54 0.595,-0.503L0.47,-0.503C0.467,-0.549 0.451,-0.582 0.423,-0.601C0.395,-0.62 0.359,-0.629 0.316,-0.629C0.301,-0.629 0.286,-0.628 0.271,-0.625C0.256,-0.622 0.242,-0.616 0.229,-0.61C0.216,-0.603 0.206,-0.593 0.198,-0.581C0.189,-0.569 0.185,-0.554 0.185,-0.536C0.185,-0.511 0.193,-0.491 0.209,-0.477C0.224,-0.462 0.245,-0.451 0.27,-0.444C0.273,-0.443 0.283,-0.44 0.302,-0.436C0.32,-0.431 0.34,-0.425 0.363,-0.419C0.386,-0.413 0.408,-0.407 0.43,-0.402C0.451,-0.396 0.467,-0.392 0.476,-0.389C0.499,-0.382 0.52,-0.372 0.537,-0.359C0.554,-0.346 0.569,-0.332 0.581,-0.316C0.592,-0.299 0.601,-0.282 0.607,-0.263C0.612,-0.244 0.615,-0.226 0.615,-0.207C0.615,-0.167 0.607,-0.133 0.591,-0.105C0.574,-0.076 0.553,-0.053 0.526,-0.035C0.499,-0.017 0.469,-0.004 0.435,0.005C0.401,0.013 0.366,0.017 0.331,0.017C0.29,0.017 0.252,0.012 0.216,0.002C0.18,-0.008 0.149,-0.023 0.122,-0.044C0.095,-0.065 0.074,-0.091 0.058,-0.124C0.042,-0.156 0.034,-0.194 0.033,-0.238L0.158,-0.238Z" style="fill:white;fill-rule:nonzero;"/>
                </g>
                <g transform="matrix(30.2678,0,0,30.2678,533.712,66.0889)">
                    <path d="M0.076,-0.714L0.372,-0.714C0.427,-0.714 0.474,-0.705 0.514,-0.686C0.554,-0.667 0.587,-0.642 0.612,-0.61C0.637,-0.577 0.656,-0.539 0.669,-0.496C0.681,-0.453 0.687,-0.406 0.687,-0.357C0.687,-0.308 0.681,-0.261 0.669,-0.218C0.656,-0.175 0.637,-0.137 0.612,-0.105C0.587,-0.072 0.554,-0.047 0.514,-0.028C0.474,-0.009 0.427,-0 0.372,-0L0.076,-0L0.076,-0.714ZM0.201,-0.102L0.324,-0.102C0.373,-0.102 0.413,-0.109 0.444,-0.122C0.474,-0.135 0.499,-0.153 0.517,-0.176C0.534,-0.199 0.546,-0.226 0.553,-0.257C0.559,-0.288 0.562,-0.321 0.562,-0.357C0.562,-0.393 0.559,-0.427 0.553,-0.458C0.546,-0.489 0.534,-0.516 0.517,-0.539C0.499,-0.562 0.474,-0.58 0.444,-0.593C0.413,-0.606 0.373,-0.612 0.324,-0.612L0.201,-0.612L0.201,-0.102Z" style="fill:white;fill-rule:nonzero;"/>
                </g>
                <g transform="matrix(30.2678,0,0,30.2678,555.565,66.0889)">
                    <path d="M0.076,-0.714L0.201,-0.714L0.201,-0.389L0.519,-0.714L0.673,-0.714L0.388,-0.429L0.693,-0L0.537,-0L0.303,-0.341L0.201,-0.24L0.201,-0L0.076,-0L0.076,-0.714Z" style="fill:white;fill-rule:nonzero;"/>
                </g>
            </g>
        </g>
        <g transform="matrix(1,0,0,1,-21,0)">
            <g transform="matrix(-1.1073,-1.35605e-16,1.40521e-16,-1.14744,491.39,43.567)">
                <clipPath id="_clip2">
                    <path d="M222.883,26.693L244.255,31.978L249.737,11.334L228.365,6.049L222.883,26.693Z"/>
                </clipPath>
                <g clip-path="url(#_clip2)">
                    <path d="M270.382,12.81L233.848,12.81C232.205,12.81 230.871,14.097 230.871,15.683L230.871,24.808C230.871,26.395 232.206,27.683 233.85,27.683L270.382,27.683L270.382,12.81Z" style="fill:rgb(251,201,53);"/>
                </g>
            </g>
            <g transform="matrix(0.364213,0,0,0.364213,32.4999,0.200674)">
                <g transform="matrix(30.2678,0,0,30.2678,514.098,66.0889)">
                    <path d="M0.461,-0.23C0.461,-0.199 0.458,-0.168 0.453,-0.139C0.448,-0.11 0.437,-0.083 0.421,-0.06C0.404,-0.037 0.381,-0.018 0.35,-0.004C0.319,0.01 0.277,0.017 0.226,0.017C0.188,0.017 0.156,0.011 0.129,-0.001C0.102,-0.012 0.08,-0.028 0.063,-0.049C0.046,-0.069 0.033,-0.093 0.025,-0.121C0.017,-0.149 0.013,-0.179 0.013,-0.212L0.013,-0.25L0.138,-0.25L0.138,-0.213C0.138,-0.172 0.145,-0.141 0.159,-0.119C0.172,-0.096 0.198,-0.085 0.236,-0.085C0.256,-0.085 0.273,-0.088 0.286,-0.094C0.299,-0.1 0.309,-0.109 0.317,-0.121C0.324,-0.132 0.329,-0.147 0.332,-0.164C0.335,-0.181 0.336,-0.201 0.336,-0.223L0.336,-0.714L0.461,-0.714L0.461,-0.23Z" style="fill:white;fill-rule:nonzero;"/>
                </g>
                <g transform="matrix(30.2678,0,0,30.2678,530.352,66.0889)">
                    <path d="M0.158,-0.238C0.158,-0.211 0.163,-0.187 0.172,-0.168C0.181,-0.149 0.194,-0.133 0.211,-0.121C0.228,-0.108 0.247,-0.099 0.269,-0.094C0.29,-0.088 0.314,-0.085 0.339,-0.085C0.366,-0.085 0.39,-0.088 0.409,-0.095C0.428,-0.101 0.444,-0.109 0.456,-0.119C0.468,-0.129 0.477,-0.14 0.482,-0.154C0.487,-0.167 0.49,-0.18 0.49,-0.193C0.49,-0.22 0.484,-0.241 0.472,-0.254C0.459,-0.267 0.446,-0.276 0.431,-0.281C0.406,-0.29 0.376,-0.299 0.343,-0.308C0.309,-0.316 0.267,-0.327 0.218,-0.34C0.187,-0.348 0.162,-0.359 0.142,-0.372C0.121,-0.385 0.105,-0.399 0.093,-0.415C0.081,-0.431 0.073,-0.448 0.068,-0.466C0.063,-0.484 0.06,-0.502 0.06,-0.521C0.06,-0.557 0.068,-0.588 0.083,-0.615C0.097,-0.641 0.117,-0.663 0.142,-0.68C0.167,-0.697 0.195,-0.71 0.226,-0.719C0.257,-0.727 0.289,-0.731 0.321,-0.731C0.358,-0.731 0.393,-0.726 0.427,-0.717C0.46,-0.707 0.489,-0.692 0.514,-0.673C0.539,-0.654 0.558,-0.63 0.573,-0.602C0.588,-0.573 0.595,-0.54 0.595,-0.503L0.47,-0.503C0.467,-0.549 0.451,-0.582 0.423,-0.601C0.395,-0.62 0.359,-0.629 0.316,-0.629C0.301,-0.629 0.286,-0.628 0.271,-0.625C0.256,-0.622 0.242,-0.616 0.229,-0.61C0.216,-0.603 0.206,-0.593 0.198,-0.581C0.189,-0.569 0.185,-0.554 0.185,-0.536C0.185,-0.511 0.193,-0.491 0.209,-0.477C0.224,-0.462 0.245,-0.451 0.27,-0.444C0.273,-0.443 0.283,-0.44 0.302,-0.436C0.32,-0.431 0.34,-0.425 0.363,-0.419C0.386,-0.413 0.408,-0.407 0.43,-0.402C0.451,-0.396 0.467,-0.392 0.476,-0.389C0.499,-0.382 0.52,-0.372 0.537,-0.359C0.554,-0.346 0.569,-0.332 0.581,-0.316C0.592,-0.299 0.601,-0.282 0.607,-0.263C0.612,-0.244 0.615,-0.226 0.615,-0.207C0.615,-0.167 0.607,-0.133 0.591,-0.105C0.574,-0.076 0.553,-0.053 0.526,-0.035C0.499,-0.017 0.469,-0.004 0.435,0.005C0.401,0.013 0.366,0.017 0.331,0.017C0.29,0.017 0.252,0.012 0.216,0.002C0.18,-0.008 0.149,-0.023 0.122,-0.044C0.095,-0.065 0.074,-0.091 0.058,-0.124C0.042,-0.156 0.034,-0.194 0.033,-0.238L0.158,-0.238Z" style="fill:white;fill-rule:nonzero;"/>
                </g>
            </g>
        </g>
    </g>
</svg>
