{
  "accessors": [
    {
      "bufferView": 3,
      "componentType": 5126,
      "count": 284,
      "max": [
        5.0,
        0.38378551602363586,
        5.0
      ],
      "min": [
        -5.0,
        -1.1162145137786865,
        -5.0
      ],
      "type": "VEC3"
    },
    {
      "bufferView": 3,
      "byteOffset": 3408,
      "componentType": 5126,
      "count": 284,
      "max": [
        1.0,
        0.976384162902832,
        1.0
      ],
      "min": [
        -1.0,
        -0.9872118830680847,
        -1.0
      ],
      "type": "VEC3"
    },
    {
      "bufferView": 2,
      "componentType": 5126,
      "count": 284,
      "max": [
        1.0,
        1.0
      ],
      "min": [
        0.0,
        0.0
      ],
      "type": "VEC2"
    },
    {
      "bufferView": 1,
      "componentType": 5125,
      "count": 960,
      "type": "SCALAR"
    },
    {
      "bufferView": 3,
      "byteOffset": 6816,
      "componentType": 5126,
      "count": 2343,
      "max": [
        5.003227233886719,
        0.38378551602363586,
        4.988295555114746
      ],
      "min": [
        -5.003227233886719,
        -1.4580367803573608,
        -4.988295555114746
      ],
      "type": "VEC3"
    },
    {
      "bufferView": 3,
      "byteOffset": 34932,
      "componentType": 5126,
      "count": 2343,
      "max": [
        1.0,
        1.0,
        1.0
      ],
      "min": [
        -1.0,
        -1.0,
        -1.0
      ],
      "type": "VEC3"
    },
    {
      "bufferView": 2,
      "byteOffset": 2272,
      "componentType": 5126,
      "count": 2343,
      "max": [
        1.0,
        1.0
      ],
      "min": [
        0.0,
        0.0
      ],
      "type": "VEC2"
    },
    {
      "bufferView": 1,
      "byteOffset": 3840,
      "componentType": 5125,
      "count": 7992,
      "type": "SCALAR"
    },
    {
      "bufferView": 3,
      "byteOffset": 63048,
      "componentType": 5126,
      "count": 428,
      "max": [
        4.375086784362793,
        -0.6564778089523315,
        4.375086307525635
      ],
      "min": [
        -4.375086784362793,
        -1.875,
        -4.375086307525635
      ],
      "type": "VEC3"
    },
    {
      "bufferView": 3,
      "byteOffset": 68184,
      "componentType": 5126,
      "count": 428,
      "max": [
        0.713324785232544,
        -0.6355044841766357,
        0.7133247256278992
      ],
      "min": [
        -0.713324785232544,
        -1.0,
        -0.7133247256278992
      ],
      "type": "VEC3"
    },
    {
      "bufferView": 2,
      "byteOffset": 21016,
      "componentType": 5126,
      "count": 428,
      "max": [
        1.0,
        0.375
      ],
      "min": [
        0.0,
        0.0
      ],
      "type": "VEC2"
    },
    {
      "bufferView": 1,
      "byteOffset": 35808,
      "componentType": 5125,
      "count": 624,
      "type": "SCALAR"
    },
    {
      "bufferView": 3,
      "byteOffset": 73320,
      "componentType": 5126,
      "count": 8192,
      "max": [
        2.2039999961853027,
        -0.973997950553894,
        2.2039999961853027
      ],
      "min": [
        -2.2039999961853027,
        -3.6366779804229736,
        -2.2039999961853027
      ],
      "type": "VEC3"
    },
    {
      "bufferView": 3,
      "byteOffset": 171624,
      "componentType": 5126,
      "count": 8192,
      "max": [
        0.8623950481414795,
        0.9533204436302185,
        0.862395167350769
      ],
      "min": [
        -0.8623950481414795,
        -0.9533205628395081,
        -0.862395167350769
      ],
      "type": "VEC3"
    },
    {
      "bufferView": 2,
      "byteOffset": 24440,
      "componentType": 5126,
      "count": 8192,
      "max": [
        1.0,
        1.0
      ],
      "min": [
        0.0,
        0.0
      ],
      "type": "VEC2"
    },
    {
      "bufferView": 1,
      "byteOffset": 38304,
      "componentType": 5125,
      "count": 12288,
      "type": "SCALAR"
    },
    {
      "bufferView": 3,
      "byteOffset": 269928,
      "componentType": 5126,
      "count": 600,
      "max": [
        2.5,
        1.875,
        2.5000007152557373
      ],
      "min": [
        -2.5,
        -0.7175315618515015,
        -2.5000007152557373
      ],
      "type": "VEC3"
    },
    {
      "bufferView": 3,
      "byteOffset": 277128,
      "componentType": 5126,
      "count": 600,
      "max": [
        0.8973348140716553,
        0.9872123003005981,
        0.8973348140716553
      ],
      "min": [
        -0.8973348140716553,
        -0.2379884421825409,
        -0.8973348140716553
      ],
      "type": "VEC3"
    },
    {
      "bufferView": 2,
      "byteOffset": 89976,
      "componentType": 5126,
      "count": 600,
      "max": [
        1.0,
        1.0
      ],
      "min": [
        0.0,
        0.3749999403953552
      ],
      "type": "VEC2"
    },
    {
      "bufferView": 1,
      "byteOffset": 87456,
      "componentType": 5125,
      "count": 864,
      "type": "SCALAR"
    },
    {
      "bufferView": 5,
      "componentType": 5126,
      "count": 6,
      "max": [
        1.0,
        0.0,
        0.0,
        0.0,
        0.0,
        1.0,
        0.0,
        0.0,
        0.0,
        0.0,
        1.0,
        0.0,
        0.0,
        0.0,
        0.0,
        1.0
      ],
      "min": [
        3.1194883121088424e-08,
        0.0,
        -0.41318878531455994,
        0.0,
        0.0,
        -0.5509184002876282,
        0.0,
        0.0,
        -0.41318878531455994,
        0.0,
        -3.1194883121088424e-08,
        0.0,
        0.0,
        -1.7025338411331177,
        0.0,
        1.0
      ],
      "type": "MAT4"
    },
    {
      "bufferView": 0,
      "componentType": 5123,
      "count": 284,
      "type": "VEC4"
    },
    {
      "bufferView": 4,
      "componentType": 5126,
      "count": 284,
      "max": [
        1.0,
        0.0,
        0.0,
        0.0
      ],
      "min": [
        1.0,
        0.0,
        0.0,
        0.0
      ],
      "type": "VEC4"
    },
    {
      "bufferView": 0,
      "byteOffset": 2272,
      "componentType": 5123,
      "count": 2343,
      "type": "VEC4"
    },
    {
      "bufferView": 4,
      "byteOffset": 4544,
      "componentType": 5126,
      "count": 2343,
      "max": [
        1.0,
        0.0,
        0.0,
        0.0
      ],
      "min": [
        1.0,
        0.0,
        0.0,
        0.0
      ],
      "type": "VEC4"
    },
    {
      "bufferView": 0,
      "byteOffset": 21016,
      "componentType": 5123,
      "count": 428,
      "type": "VEC4"
    },
    {
      "bufferView": 4,
      "byteOffset": 42032,
      "componentType": 5126,
      "count": 428,
      "max": [
        1.0,
        0.0,
        0.0,
        0.0
      ],
      "min": [
        1.0,
        0.0,
        0.0,
        0.0
      ],
      "type": "VEC4"
    },
    {
      "bufferView": 0,
      "byteOffset": 24440,
      "componentType": 5123,
      "count": 8192,
      "type": "VEC4"
    },
    {
      "bufferView": 4,
      "byteOffset": 48880,
      "componentType": 5126,
      "count": 8192,
      "max": [
        1.0,
        0.0,
        0.0,
        0.0
      ],
      "min": [
        1.0,
        0.0,
        0.0,
        0.0
      ],
      "type": "VEC4"
    },
    {
      "bufferView": 0,
      "byteOffset": 89976,
      "componentType": 5123,
      "count": 600,
      "type": "VEC4"
    },
    {
      "bufferView": 4,
      "byteOffset": 179952,
      "componentType": 5126,
      "count": 600,
      "max": [
        1.0,
        0.0,
        0.0,
        0.0
      ],
      "min": [
        1.0,
        0.0,
        0.0,
        0.0
      ],
      "type": "VEC4"
    },
    {
      "bufferView": 6,
      "componentType": 5126,
      "count": 40,
      "max": [
        1.6666666269302368
      ],
      "min": [
        0.0416666679084301
      ],
      "type": "SCALAR"
    },
    {
      "bufferView": 8,
      "componentType": 5126,
      "count": 40,
      "max": [
        0.0,
        0.028559772297739983,
        0.0,
        0.9999660849571228
      ],
      "min": [
        0.0,
        -0.6866236329078674,
        0.0,
        0.7270130515098572
      ],
      "type": "VEC4"
    },
    {
      "bufferView": 6,
      "byteOffset": 160,
      "componentType": 5126,
      "count": 32,
      "max": [
        1.6666666269302368
      ],
      "min": [
        0.0416666679084301
      ],
      "type": "SCALAR"
    },
    {
      "bufferView": 7,
      "componentType": 5126,
      "count": 32,
      "max": [
        1.0000001192092896,
        1.0,
        1.0000001192092896
      ],
      "min": [
        0.9999998807907104,
        1.0,
        0.9999998807907104
      ],
      "type": "VEC3"
    },
    {
      "bufferView": 6,
      "byteOffset": 288,
      "componentType": 5126,
      "count": 32,
      "max": [
        1.6666666269302368
      ],
      "min": [
        0.0416666679084301
      ],
      "type": "SCALAR"
    },
    {
      "bufferView": 7,
      "byteOffset": 384,
      "componentType": 5126,
      "count": 32,
      "max": [
        0.0,
        -0.5053561925888062,
        0.0
      ],
      "min": [
        0.0,
        -1.7449226379394531,
        0.0
      ],
      "type": "VEC3"
    },
    {
      "bufferView": 6,
      "byteOffset": 416,
      "componentType": 5126,
      "count": 36,
      "max": [
        1.6666666269302368
      ],
      "min": [
        0.0416666679084301
      ],
      "type": "SCALAR"
    },
    {
      "bufferView": 7,
      "byteOffset": 768,
      "componentType": 5126,
      "count": 36,
      "max": [
        1.2100000381469727,
        1.2100000381469727,
        1.2100000381469727
      ],
      "min": [
        0.10000002384185791,
        0.10000002384185791,
        0.10000002384185791
      ],
      "type": "VEC3"
    },
    {
      "bufferView": 6,
      "byteOffset": 560,
      "componentType": 5126,
      "count": 33,
      "max": [
        1.6666666269302368
      ],
      "min": [
        0.0416666679084301
      ],
      "type": "SCALAR"
    },
    {
      "bufferView": 7,
      "byteOffset": 1200,
      "componentType": 5126,
      "count": 33,
      "max": [
        0.0,
        -0.5006089210510254,
        0.0
      ],
      "min": [
        0.0,
        -1.7401753664016724,
        0.0
      ],
      "type": "VEC3"
    },
    {
      "bufferView": 6,
      "byteOffset": 692,
      "componentType": 5126,
      "count": 36,
      "max": [
        1.6666666269302368
      ],
      "min": [
        0.0416666679084301
      ],
      "type": "SCALAR"
    },
    {
      "bufferView": 7,
      "byteOffset": 1596,
      "componentType": 5126,
      "count": 36,
      "max": [
        1.0889999866485596,
        1.0889999866485596,
        1.0889999866485596
      ],
      "min": [
        0.009000003337860107,
        0.009000003337860107,
        0.009000003337860107
      ],
      "type": "VEC3"
    },
    {
      "bufferView": 6,
      "byteOffset": 836,
      "componentType": 5126,
      "count": 33,
      "max": [
        1.6666666269302368
      ],
      "min": [
        0.0416666679084301
      ],
      "type": "SCALAR"
    },
    {
      "bufferView": 7,
      "byteOffset": 2028,
      "componentType": 5126,
      "count": 33,
      "max": [
        0.0,
        -0.5120831727981567,
        0.0
      ],
      "min": [
        0.0,
        -1.7516496181488037,
        0.0
      ],
      "type": "VEC3"
    },
    {
      "bufferView": 6,
      "byteOffset": 968,
      "componentType": 5126,
      "count": 36,
      "max": [
        1.6666666269302368
      ],
      "min": [
        0.0416666679084301
      ],
      "type": "SCALAR"
    },
    {
      "bufferView": 7,
      "byteOffset": 2424,
      "componentType": 5126,
      "count": 36,
      "max": [
        1.0,
        1.0,
        1.0
      ],
      "min": [
        0.008099973201751709,
        0.008099973201751709,
        0.008099973201751709
      ],
      "type": "VEC3"
    },
    {
      "bufferView": 6,
      "byteOffset": 1112,
      "componentType": 5126,
      "count": 30,
      "max": [
        1.6666666269302368
      ],
      "min": [
        0.0416666679084301
      ],
      "type": "SCALAR"
    },
    {
      "bufferView": 7,
      "byteOffset": 2856,
      "componentType": 5126,
      "count": 30,
      "max": [
        0.0,
        -0.5120831727981567,
        0.0
      ],
      "min": [
        0.0,
        -1.7516496181488037,
        0.0
      ],
      "type": "VEC3"
    },
    {
      "bufferView": 6,
      "byteOffset": 1232,
      "componentType": 5126,
      "count": 32,
      "max": [
        1.6666666269302368
      ],
      "min": [
        0.0416666679084301
      ],
      "type": "SCALAR"
    },
    {
      "bufferView": 7,
      "byteOffset": 3216,
      "componentType": 5126,
      "count": 32,
      "max": [
        1.0,
        1.0,
        1.0
      ],
      "min": [
        0.008099973201751709,
        0.008099973201751709,
        0.008099973201751709
      ],
      "type": "VEC3"
    }
  ],
  "animations": [
    {
      "channels": [
        {
          "sampler": 0,
          "target": {
            "node": 12,
            "path": "rotation"
          }
        },
        {
          "sampler": 1,
          "target": {
            "node": 12,
            "path": "scale"
          }
        },
        {
          "sampler": 2,
          "target": {
            "node": 13,
            "path": "translation"
          }
        },
        {
          "sampler": 3,
          "target": {
            "node": 13,
            "path": "scale"
          }
        },
        {
          "sampler": 4,
          "target": {
            "node": 14,
            "path": "translation"
          }
        },
        {
          "sampler": 5,
          "target": {
            "node": 14,
            "path": "scale"
          }
        },
        {
          "sampler": 6,
          "target": {
            "node": 15,
            "path": "translation"
          }
        },
        {
          "sampler": 7,
          "target": {
            "node": 15,
            "path": "scale"
          }
        },
        {
          "sampler": 8,
          "target": {
            "node": 16,
            "path": "translation"
          }
        },
        {
          "sampler": 9,
          "target": {
            "node": 16,
            "path": "scale"
          }
        }
      ],
      "name": "ArmatureAction.001",
      "samplers": [
        {
          "input": 31,
          "interpolation": "LINEAR",
          "output": 32
        },
        {
          "input": 33,
          "interpolation": "LINEAR",
          "output": 34
        },
        {
          "input": 35,
          "interpolation": "LINEAR",
          "output": 36
        },
        {
          "input": 37,
          "interpolation": "LINEAR",
          "output": 38
        },
        {
          "input": 39,
          "interpolation": "LINEAR",
          "output": 40
        },
        {
          "input": 41,
          "interpolation": "LINEAR",
          "output": 42
        },
        {
          "input": 43,
          "interpolation": "LINEAR",
          "output": 44
        },
        {
          "input": 45,
          "interpolation": "LINEAR",
          "output": 46
        },
        {
          "input": 47,
          "interpolation": "LINEAR",
          "output": 48
        },
        {
          "input": 49,
          "interpolation": "LINEAR",
          "output": 50
        }
      ]
    }
  ],
  "asset": {
    "extras": {
      "author": "Graphfun (https://sketchfab.com/the_3d_animate_guy)",
      "license": "CC-BY-4.0 (http://creativecommons.org/licenses/by/4.0/)",
      "source": "https://sketchfab.com/3d-models/ufo-f7ac46de718a444384a73e953d49997c",
      "title": "UFO"
    },
    "generator": "Sketchfab-12.68.0",
    "version": "2.0"
  },
  "bufferViews": [
    {
      "buffer": 0,
      "byteLength": 94776,
      "byteStride": 8,
      "name": "shortBufferViews",
      "target": 34962
    },
    {
      "buffer": 0,
      "byteLength": 90912,
      "byteOffset": 94776,
      "name": "floatBufferViews",
      "target": 34963
    },
    {
      "buffer": 0,
      "byteLength": 94776,
      "byteOffset": 185688,
      "byteStride": 8,
      "name": "floatBufferViews",
      "target": 34962
    },
    {
      "buffer": 0,
      "byteLength": 284328,
      "byteOffset": 280464,
      "byteStride": 12,
      "name": "floatBufferViews",
      "target": 34962
    },
    {
      "buffer": 0,
      "byteLength": 189552,
      "byteOffset": 564792,
      "byteStride": 16,
      "name": "floatBufferViews",
      "target": 34962
    },
    {
      "buffer": 0,
      "byteLength": 384,
      "byteOffset": 754344,
      "name": "floatBufferViews"
    },
    {
      "buffer": 0,
      "byteLength": 1360,
      "byteOffset": 754728,
      "name": "floatBufferViews"
    },
    {
      "buffer": 0,
      "byteLength": 3600,
      "byteOffset": 756088,
      "byteStride": 12,
      "name": "floatBufferViews"
    },
    {
      "buffer": 0,
      "byteLength": 640,
      "byteOffset": 759688,
      "byteStride": 16,
      "name": "floatBufferViews"
    }
  ],
  "buffers": [
    {
      "byteLength": 760328,
      "uri": "scene.bin"
    }
  ],
  "materials": [
    {
      "doubleSided": true,
      "name": "LightMEtal",
      "pbrMetallicRoughness": {
        "baseColorFactor": [
          0.464008,
          0.464008,
          0.464008,
          1.0
        ],
        "roughnessFactor": 0.3
      }
    },
    {
      "doubleSided": true,
      "name": "DarkMetal",
      "pbrMetallicRoughness": {
        "baseColorFactor": [
          0.0704159,
          0.0704159,
          0.0704159,
          1.0
        ],
        "roughnessFactor": 0.3
      }
    },
    {
      "doubleSided": true,
      "emissiveFactor": [
        0.0606849,
        0.271388,
        0.128163
      ],
      "name": "Light",
      "pbrMetallicRoughness": {
        "baseColorFactor": [
          0.296315,
          0.8,
          0.42041,
          1.0
        ],
        "metallicFactor": 0.0,
        "roughnessFactor": 0.5
      }
    },
    {
      "doubleSided": true,
      "name": "White",
      "pbrMetallicRoughness": {
        "metallicFactor": 0.0
      }
    },
    {
      "doubleSided": true,
      "name": "Glass",
      "pbrMetallicRoughness": {
        "baseColorFactor": [
          0.169688,
          0.8,
          0.300744,
          1.0
        ],
        "metallicFactor": 0.0,
        "roughnessFactor": 0.0
      }
    }
  ],
  "meshes": [
    {
      "name": "Object_0",
      "primitives": [
        {
          "attributes": {
            "JOINTS_0": 21,
            "NORMAL": 1,
            "POSITION": 0,
            "TEXCOORD_0": 2,
            "WEIGHTS_0": 22
          },
          "indices": 3,
          "material": 0,
          "mode": 4
        }
      ]
    },
    {
      "name": "Object_1",
      "primitives": [
        {
          "attributes": {
            "JOINTS_0": 23,
            "NORMAL": 5,
            "POSITION": 4,
            "TEXCOORD_0": 6,
            "WEIGHTS_0": 24
          },
          "indices": 7,
          "material": 1,
          "mode": 4
        }
      ]
    },
    {
      "name": "Object_2",
      "primitives": [
        {
          "attributes": {
            "JOINTS_0": 25,
            "NORMAL": 9,
            "POSITION": 8,
            "TEXCOORD_0": 10,
            "WEIGHTS_0": 26
          },
          "indices": 11,
          "material": 2,
          "mode": 4
        }
      ]
    },
    {
      "name": "Object_3",
      "primitives": [
        {
          "attributes": {
            "JOINTS_0": 27,
            "NORMAL": 13,
            "POSITION": 12,
            "TEXCOORD_0": 14,
            "WEIGHTS_0": 28
          },
          "indices": 15,
          "material": 3,
          "mode": 4
        }
      ]
    },
    {
      "name": "Object_4",
      "primitives": [
        {
          "attributes": {
            "JOINTS_0": 29,
            "NORMAL": 17,
            "POSITION": 16,
            "TEXCOORD_0": 18,
            "WEIGHTS_0": 30
          },
          "indices": 19,
          "material": 4,
          "mode": 4
        }
      ]
    }
  ],
  "nodes": [
    {
      "children": [
        1
      ],
      "matrix": [
        1.0,
        0.0,
        0.0,
        0.0,
        0.0,
        2.220446049250313e-16,
        -1.0,
        0.0,
        0.0,
        1.0,
        2.220446049250313e-16,
        0.0,
        0.0,
        0.0,
        0.0,
        1.0
      ],
      "name": "Sketchfab_model"
    },
    {
      "children": [
        2
      ],
      "name": "root"
    },
    {
      "children": [
        3
      ],
      "matrix": [
        1.0,
        0.0,
        0.0,
        0.0,
        0.0,
        2.220446049250313e-16,
        1.0,
        0.0,
        0.0,
        -1.0,
        2.220446049250313e-16,
        0.0,
        0.0,
        0.0,
        0.0,
        1.0
      ],
      "name": "GLTF_SceneRootNode"
    },
    {
      "children": [
        4
      ],
      "matrix": [
        1.2101006507873535,
        0.0,
        0.0,
        0.0,
        0.0,
        1.2101006507873535,
        0.0,
        0.0,
        0.0,
        0.0,
        1.2101006507873535,
        0.0,
        0.0,
        0.0,
        0.0,
        1.0
      ],
      "name": "Armature_6"
    },
    {
      "children": [
        5,
        7,
        8,
        9,
        10,
        11,
        6
      ],
      "name": "GLTF_created_0"
    },
    {
      "children": [
        12,
        13,
        14,
        15,
        16
      ],
      "name": "GLTF_created_0_rootJoint"
    },
    {
      "matrix": [
        0.41318878531455994,
        0.0,
        0.0,
        0.0,
        0.0,
        0.5509184002876282,
        0.0,
        0.0,
        0.0,
        0.0,
        0.41318878531455994,
        0.0,
        0.0,
        -0.20175430178642273,
        0.0,
        1.0
      ],
      "name": "Body_5"
    },
    {
      "mesh": 0,
      "name": "Object_7",
      "skin": 0
    },
    {
      "mesh": 1,
      "name": "Object_8",
      "skin": 0
    },
    {
      "mesh": 2,
      "name": "Object_9",
      "skin": 0
    },
    {
      "mesh": 3,
      "name": "Object_10",
      "skin": 0
    },
    {
      "mesh": 4,
      "name": "Object_11",
      "skin": 0
    },
    {
      "name": "Body_0",
      "rotation": [
        0.0,
        0.046540696173906326,
        0.0,
        0.9989163875579834
      ]
    },
    {
      "name": "Trail1_1",
      "rotation": [
        0.7071068286895752,
        0.0,
        -0.7071068286895752,
        0.0
      ],
      "translation": [
        0.0,
        -1.7449225187301636,
        0.0
      ]
    },
    {
      "name": "Trail2_2",
      "rotation": [
        0.7071068286895752,
        0.0,
        -0.7071068286895752,
        0.0
      ],
      "translation": [
        0.0,
        -1.120392084121704,
        0.0
      ]
    },
    {
      "name": "Trail3_3",
      "rotation": [
        0.7071068286895752,
        0.0,
        -0.7071068286895752,
        0.0
      ],
      "translation": [
        0.0,
        -0.5120831727981567,
        0.0
      ]
    },
    {
      "name": "Trail4_4",
      "rotation": [
        0.7071068286895752,
        0.0,
        -0.7071068286895752,
        0.0
      ],
      "translation": [
        0.0,
        -0.5120831727981567,
        0.0
      ]
    }
  ],
  "scene": 0,
  "scenes": [
    {
      "name": "Sketchfab_Scene",
      "nodes": [
        0
      ]
    }
  ],
  "skins": [
    {
      "inverseBindMatrices": 20,
      "joints": [
        5,
        12,
        13,
        14,
        15,
        16
      ],
      "skeleton": 5
    }
  ]
}
